<?xml version="1.0" encoding="UTF-8" standalone="no"?>
<svg
   xmlns:dc="http://purl.org/dc/elements/1.1/"
   xmlns:cc="http://creativecommons.org/ns#"
   xmlns:rdf="http://www.w3.org/1999/02/22-rdf-syntax-ns#"
   xmlns:svg="http://www.w3.org/2000/svg"
   xmlns="http://www.w3.org/2000/svg"
   xmlns:sodipodi="http://sodipodi.sourceforge.net/DTD/sodipodi-0.dtd"
   xmlns:inkscape="http://www.inkscape.org/namespaces/inkscape"
   id="Capa_1"
   enable-background="new 0 0 512 512"
   height="512"
   viewBox="0 0 512 512"
   width="512"
   version="1.1"
   sodipodi:docname="no-image.svg"
   inkscape:version="1.0.2-2 (e86c870879, 2021-01-15)">
  <metadata
     id="metadata139">
    <rdf:RDF>
      <cc:Work
         rdf:about="">
        <dc:format>image/svg+xml</dc:format>
        <dc:type
           rdf:resource="http://purl.org/dc/dcmitype/StillImage" />
        <dc:title></dc:title>
      </cc:Work>
    </rdf:RDF>
  </metadata>
  <defs
     id="defs137" />
  <sodipodi:namedview
     pagecolor="#ffffff"
     bordercolor="#666666"
     borderopacity="1"
     objecttolerance="10"
     gridtolerance="10"
     guidetolerance="10"
     inkscape:pageopacity="0"
     inkscape:pageshadow="2"
     inkscape:window-width="1920"
     inkscape:window-height="1001"
     id="namedview135"
     showgrid="false"
     inkscape:zoom="1.4088798"
     inkscape:cx="178.54274"
     inkscape:cy="263.60348"
     inkscape:window-x="-9"
     inkscape:window-y="-9"
     inkscape:window-maximized="1"
     inkscape:current-layer="g990" />
  <linearGradient
     id="SVGID_1_"
     gradientUnits="userSpaceOnUse"
     x1="256"
     x2="256"
     y1="370.955"
     y2="61">
    <stop
       offset="0"
       stop-color="#00b59c"
       id="stop110" />
    <stop
       offset="1"
       stop-color="#9cffac"
       id="stop112" />
  </linearGradient>
  <linearGradient
     id="SVGID_2_"
     gradientUnits="userSpaceOnUse"
     x1="256"
     x2="256"
     y1="451"
     y2="121">
    <stop
       offset="0"
       stop-color="#c3ffe8"
       id="stop115" />
    <stop
       offset=".9973"
       stop-color="#f0fff4"
       id="stop117" />
  </linearGradient>
  <g
     id="g156"
     transform="translate(0,-34.784352)">
    <g
       id="g990"
       transform="matrix(1.5181431,0,0,1.5181431,-132.64463,-150.66791)">
      <g
         id="g1001"
         transform="translate(0,-15.28894)">
        <g
           id="g132"
           style="opacity:1"
           transform="matrix(0.40372836,0,0,0.40372836,152.64554,168.13078)">
          <g
             id="g124">
            <g
               id="g122">
              <path
                 d="M 497,61 H 15 C 6.716,61 0,67.716 0,76 v 294.955 l 512,-0.414 V 76 c 0,-8.284 -6.716,-15 -15,-15 z"
                 fill="url(#SVGID_1_)"
                 id="path120"
                 style="fill:url(#SVGID_1_)" />
            </g>
          </g>
          <g
             id="g130">
            <g
               id="g128">
              <path
                 d="M 357.492,186.36 C 354.641,182.962 350.433,181 346,181 c -0.008,0 -0.017,0 -0.024,0 -4.443,0.007 -8.654,1.984 -11.499,5.397 L 196.619,351.826 118,247 c -2.824,-3.766 -7.253,-5.988 -11.96,-6 -0.014,0 -0.027,0 -0.04,0 -4.692,0 -9.116,2.196 -11.952,5.937 L 0,370.955 V 436 c 0,8.284 6.716,15 15,15 h 482 c 8.284,0 15,-6.716 15,-15 V 370.541 Z M 196,211 c 24.813,0 45,-20.187 45,-45 0,-24.813 -20.187,-45 -45,-45 -24.813,0 -45,20.187 -45,45 0,24.813 20.187,45 45,45 z"
                 fill="url(#SVGID_2_)"
                 id="path126"
                 style="fill:url(#SVGID_2_)" />
            </g>
          </g>
        </g>
        <text
           xml:space="preserve"
           style="font-style:normal;font-weight:normal;font-size:59.682px;line-height:1.25;font-family:sans-serif;fill:#000000;fill-opacity:0.6;stroke:none;stroke-width:1.49205"
           x="81.995499"
           y="418.48499"
           id="text143"><tspan
             sodipodi:role="line"
             id="tspan141"
             x="81.995499"
             y="418.48499"
             style="font-style:normal;font-variant:normal;font-weight:bold;font-stretch:normal;font-family:sans-serif;-inkscape-font-specification:'sans-serif Bold';fill:#000000;fill-opacity:0.6;stroke-width:1.49205">NO IMAGE</tspan></text>
      </g>
    </g>
  </g>
</svg>
